<svg xmlns="http://www.w3.org/2000/svg" width="40" height="40" viewBox="0 0 40 40" fill="none" aria-hidden="true">
  <defs>
    <linearGradient id="kp-shield" x1="8" y1="4" x2="32" y2="36" gradientUnits="userSpaceOnUse">
      <stop stop-color="#2563eb"/>
      <stop offset="0.45" stop-color="#6366f1"/>
      <stop offset="1" stop-color="#7c3aed"/>
    </linearGradient>
    <linearGradient id="kp-shine" x1="12" y1="6" x2="22" y2="18" gradientUnits="userSpaceOnUse">
      <stop stop-color="#ffffff" stop-opacity="0.55"/>
      <stop offset="1" stop-color="#ffffff" stop-opacity="0"/>
    </linearGradient>
    <filter id="kp-soft" x="-20%" y="-20%" width="140%" height="140%">
      <feDropShadow dx="0" dy="1" stdDeviation="1" flood-color="#1e1b4b" flood-opacity="0.25"/>
    </filter>
  </defs>
  <path
    filter="url(#kp-soft)"
    d="M20 3.5 34 9v11.2c0 6.8-4.2 12.8-10.5 15.4L20 36l-3.5-1.4C10.2 32 6 26 6 20.2V9L20 3.5Z"
    fill="url(#kp-shield)"
  />
  <path
    d="M20 3.5 34 9v11.2c0 6.8-4.2 12.8-10.5 15.4L20 36l-3.5-1.4C10.2 32 6 26 6 20.2V9L20 3.5Z"
    fill="url(#kp-shine)"
  />
  <path
    d="M12.5 13.2h4.1c2.2 0 3.8 1.5 3.8 3.5 0 1.4-.7 2.5-1.9 3l2.3 4.9h-2.5l-2-4.4h-1.4v4.4h-2.4V13.2Zm2.4 5.1h1.5c1 0 1.6-.6 1.6-1.5s-.6-1.4-1.6-1.4h-1.5v2.9Z"
    fill="white"
    fill-opacity="0.95"
  />
  <path
    d="M22.8 13.2h6.4v2.1h-4v2.1h3.5v2h-3.5v2.3h4.2v2.1h-6.6V13.2Z"
    fill="white"
    fill-opacity="0.92"
  />
</svg>
